# xmcd
#
# Track frame offsets:
# 150
# 8540
# 28402
# 43340
# 55338
# 70129
# 86253
# 105291
# 121464
# 138047
# 151916
# 169686
# 183354
# 200297
# 218808
# 230483
# 242162
# 262626
# 277751
#
# Disc length: 3814 seconds
#
#
# Revision: 0
# Processed by: cddbd v1.4PL0 Copyright (c) Steve Scherf et al.
# Submitted via: FreeRIP 2.53 
#
DISCID=f20ee413
DTITLE=Various Artist - Heavy Timbre (Chicago Boogie Piano)
DYEAR=1976
DGENRE=Blues
TTITLE0=Blind John Davis - Davis Boogie
TTITLE1=Blind John Davis - A Little Every Day
TTITLE2=Blind John Davis - I Almost Lost My Mind
TTITLE3=Sunnyland Slim - She's Got A Thing Going On
TTITLE4=Sunnyland Slim - Canadian Walk
TTITLE5=Sunnyland Slim - Gotta See My Lawyer
TTITLE6=Willie Mason - I Don't Know
TTITLE7=Willie Mason - World Of Trouble
TTITLE8=Willie Mason - Seventh Son
TTITLE9=Jimmy Walker - Four O'Clock Blues
TTITLE10=Jimmy Walker - I Just Want To Hold On
TTITLE11=Erwin Helfer - The Fives
TTITLE12=Erwin Helfer - Improvizations
TTITLE13=Sunnyland Slim and Erwin Helfer - Big Joe
TTITLE14=Sunnyland Slim - Promote Sunnyland A Drink
TTITLE15=Blind John Davis - Kansas City
TTITLE16=Willie Mason - Slow Blues
TTITLE17=Sunnyland Slim and Blind John Davis - Johnny Sunny Blues
TTITLE18=Jimmy Walker - Mr. Freddie Blues
EXTD=
EXTT0=
EXTT1=
EXTT2=
EXTT3=
EXTT4=
EXTT5=
EXTT6=
EXTT7=
EXTT8=
EXTT9=
EXTT10=
EXTT11=
EXTT12=
EXTT13=
EXTT14=
EXTT15=
EXTT16=
EXTT17=
EXTT18=
PLAYORDER=
